<svg
xmlns="http://www.w3.org/2000/svg"
version="1.1"
width="500"
height="500"
viewBox="0 0 500 500"
>

<rect
width="500"
height="500"
rx="250"
fill="#ece2e1"
/>

<path fill="#95f4c1" d="M440.7 280.2c0 6.7-.4 13.1-1.2 19.2-1.1 7.9-2.9 15.2-5.3 21.9a86.3 86.3 0 01-20.7 32.6C393 374.3 362 385.2 325 390.6c-23 3.3-48.3 4.5-74.9 4.5a529 529 0 01-75-4.6c-68-9.8-115.7-38.4-115.7-110.3 0-96.3 85.4-174.3 190.7-174.3 95.7 0 175 64.4 188.6 148.3a161 161 0 012.1 26z"/>

<ellipse cx="323.8" cy="217.4" fill="#b3ffdf" rx="52.3" ry="77.6" transform="rotate(-32.5 323.8 217.4)"/>

<path fill="#95f4c1" d="M169 122.4a194.5 194.5 0 00-56.5 37c-29.4-10.7-40.3-32.4-41-60.1 37-5.4 76.7-3 97.4 23.1zM331 122.4a194.5 194.5 0 0156.4 37c29.5-10.7 40.4-32.4 41.1-60.1-37-5.4-76.7-3-97.5 23.1z"/>
<path fill="#fec3aa" d="M148.6 132.6c-12.3 7-23.7 15.4-33.9 24.7-20.7-8.3-28.4-24.3-29-44.6 27.2-4 49.4.6 62.9 19.9zM351.4 132.6c12.3 7 23.6 15.4 33.8 24.7 20.8-8.3 28.5-24.3 29-44.6-27.1-4-49.3.6-62.8 19.9z"/>

<path fill="#fff" d="M210.3 362L193 359a3.2 3.2 0 01-2.6-3.4l1.1-18c.1-1.9 2-3.3 3.8-3l22 4c2 .4 3.2 2.5 2.5 4.3l-6 17.1c-.4 1.5-2 2.4-3.6 2.1zM289.8 362L307 359a3.2 3.2 0 002.6-3.4l-1.1-18c-.1-1.9-2-3.3-3.8-3l-22 4c-2 .4-3.2 2.5-2.5 4.3l6 17.1c.4 1.5 2 2.4 3.6 2.1z"/>
<path fill="#77d6a3" d="M275.7 273.1c-9.4 0-18.2-1.5-25.7 2-7.5-3.5-16.3-2-25.7-2-27.9 0-50.5 17.4-50.5 39 0 21.4 22.6 38.8 50.5 38.8 9.4 0 18.2-6.8 25.7-10.2 7.5 3.4 16.3 10.2 25.7 10.2 27.9 0 50.5-17.4 50.5-38.9s-22.6-38.9-50.5-38.9z"/>
<path fill="#15212a" d="M219.9 307.1c-.9 0-1.7 0-2.6-.2a4 4 0 01.5-8h2.1c2.6 0 4.6-1 5.5-5.8a4 4 0 014.7-3.2 4 4 0 013.2 4.7c-1.5 8-6.3 12.5-13.4 12.5zM281.1 307.1c.9 0 1.7 0 2.6-.2a4 4 0 00-.5-8h-2.1c-2.6 0-4.6-1-5.5-5.8a4 4 0 00-4.7-3.2 4 4 0 00-3.2 4.7c1.5 8 6.3 12.5 13.4 12.5z"/>

<circle fill="#15212a" cx="168.62" cy="248.28" r="15.49"/>
<circle fill="#fff" cx="163.62" cy="242.97" r="4.95"/>
<circle fill="#15212a" cx="331.04" cy="248.28" r="15.49"/>
<circle fill="#fff" cx="336.04" cy="242.97" r="4.95"/>

<path fill="#15212a" d="M139.8 203c-1 0-2-.3-2.8-.9a5 5 0 01-1.3-7c10.5-15.5 25.8-20.4 45.7-14.5a5 5 0 11-2.9 9.6c-15.6-4.7-26.6-1.3-34.5 10.6a5 5 0 01-4.2 2.2zM361.4 203a5 5 0 01-4.2-2.2c-8-12-19-15.3-34.5-10.6a5 5 0 11-2.9-9.6c19.9-6 35.2-1 45.7 14.6a5 5 0 01-4.1 7.8z"/>

</svg>