<svg
xmlns="http://www.w3.org/2000/svg"
version="1.1"
width="500"
height="500"
viewBox="0 0 500 500"
>

<rect
width="500"
height="500"
rx="250"
fill="#ece2e1"
/>

<path fill="#fca9d0" d="M440.7 280.2c0 6.7-.4 13.1-1.2 19.2-1.1 7.9-2.9 15.2-5.3 21.9a86.3 86.3 0 01-20.7 32.6C393 374.3 362 385.2 325 390.6c-23 3.3-48.3 4.5-74.9 4.5a529 529 0 01-75-4.6c-68-9.8-115.7-38.4-115.7-110.3 0-96.3 85.4-174.3 190.7-174.3 95.7 0 175 64.4 188.6 148.3a161 161 0 012.1 26z"/>

<path fill="#ffc7ee" d="M235 161.3c14.4 27.5 0 71-41.1 115.2-31.8 34.1-86.6 16.8-101-10.8s7.5-67.4 48.9-89 78.9-43 93.3-15.4z"/>

<path fill="#fca9d0" d="M396.4 168.5l-4-4.2a190.3 190.3 0 00-74.2-47c9.7-15.7 38.6-48.2 59.6-54.2 4.6-1.4 9.6.7 12 4.8 22.4 38.8 11.6 84.5 6.6 100.6zM103.6 168.5l4-4.2a190.3 190.3 0 0174.2-47c-9.7-15.7-38.6-48.2-59.6-54.2-4.6-1.4-9.6.7-12 4.8-22.4 38.8-11.6 84.5-6.6 100.6z"/>
<path fill="#fec3aa" d="M392.4 164.3a190.3 190.3 0 00-57.6-40.2c8.4-12.5 28.6-34.4 43.4-38.7a8 8 0 019 3.6c16.8 28.9 9 62.8 5.2 75.3zM107.6 164.3a190.3 190.3 0 0157.6-40.2c-8.4-12.5-28.6-34.4-43.4-38.7a8 8 0 00-9 3.6c-16.8 28.9-9 62.8-5.2 75.3z"/>

<path fill="#fca9d0" d="M309.5 114.6c-18.7-5.6-38.7-8.6-59.4-8.6 -10.6 0-21 0.8-31.1 2.3 -8.1-10.8-13-23.6-14-37 0-0.4-0.1-0.8-0.1-1.2 -0.6-11.3 5.6-23.1 5.6-23.1s1.8 10.8 8.9 24.3c7 13.2 19.6 18.4 20 18.6 -0.1-0.2-3.4-4.4-1.2-21.4 2.6-19.5 18.6-28.4 18.6-28.4s-4 11.7-2 25c2.5 16.2 15.9 27.3 15.9 27.3s0.3-8.3 5.2-21.5c4.9-13.2 15.7-20.7 15.7-20.7s-2.4 9.8-2.4 27.9C289 93.1 304.5 109.6 309.5 114.6z"/>

<ellipse cx="250" cy="299.3" fill="#de8bb2" rx="39.7" ry="27.6"/>
<path fill="#c06d94" d="M229.1 315.4c-1.2 1.4-3.3 1.6-5.4.9a8.2 8.2 0 01-4.7-4.3c-1-2-.9-4 .3-5.3 1.4-1.5 3.7-1.8 5.9-.8a8.3 8.3 0 014.1 3.7c1.1 2 1.1 4.3-.2 5.8zM281 312a8.5 8.5 0 01-4.7 4.3c-2 .7-4.1.4-5.4-1-1.2-1.4-1.2-3.6-.2-5.6a8.5 8.5 0 014.2-3.8c2.2-1 4.5-.7 5.8.8 1.2 1.3 1.3 3.4.4 5.4z"/>
<path fill="#15212a" d="M281 312a26.6 26.6 0 00-6.1-6.1c-.8.3-1.6.8-2.3 1.4-.8.7-1.4 1.5-1.9 2.4a3 3 0 001 1.5 19 19 0 014.6 5c1.3 2.2 2 4.5 2 7 0 10.2-12.7 18.6-28.3 18.6s-28.3-8.4-28.3-18.7c0-2.4.7-4.7 2-6.8a19 19 0 014.5-5.1c.6-.4 1-1 1-1.6a8.3 8.3 0 00-4-3.7c-.3 0-.6.2-.9.4-2 1.7-3.9 3.6-5.3 5.7a19.5 19.5 0 00-3.6 11.1c0 13.8 15.5 25 34.6 25s34.6-11.2 34.6-25c0-4-1.3-7.7-3.5-11z"/>

<circle cx="169" cy="250" r="20.4" fill="#15212a"/>
<circle cx="175.4" cy="255.8" r="9.6" fill="#fff"/>
<circle cx="159.4" cy="241" r="4.2" fill="#fff"/>
<circle cx="331" cy="250" r="20.4" fill="#15212a"/>
<circle cx="324.6" cy="255.8" r="9.6" fill="#fff"/>
<circle cx="340.6" cy="241" r="4.2" fill="#fff"/>

<ellipse fill="#15212a" cx="348" cy="190.6" rx="8.3" ry="19.4" transform="rotate(-57.5 348 190.6)"/>
<ellipse fill="#15212a" cx="152" cy="205.1" rx="19.4" ry="8.3" transform="rotate(-32.5 152 205)"/>

</svg>