<svg
xmlns="http://www.w3.org/2000/svg"
version="1.1"
width="500"
height="500"
viewBox="0 0 500 500"
>

<rect
width="500"
height="500"
rx="250"
fill="#c4ddd6"
/>

<path fill="#76fcf5" d="M440.7 280.2c0 6.7-.4 13.1-1.2 19.2-1.1 7.9-2.9 15.2-5.3 21.9a86.3 86.3 0 01-20.7 32.6C393 374.3 362 385.2 325 390.6c-23 3.3-48.3 4.5-74.9 4.5a529 529 0 01-75-4.6c-68-9.8-115.7-38.4-115.7-110.3 0-96.3 85.4-174.3 190.7-174.3 95.7 0 175 64.4 188.6 148.3a161 161 0 012.1 26z"/>

<ellipse cx="323.8" cy="217.4" fill="#94ffff" rx="52.3" ry="77.6" transform="rotate(-32.5 323.8 217.4)"/>

<path fill="#58ded7" d="M71.4 144.8c-7.5-15.8 70.4-53.2 78-37.5 8.7 23 7.8 43-1.6 60.6a32 32 0 01-33.8 16.5c-21.4-3.7-35.8-16.6-42.6-39.6zM423.4 144.8c7.6-15.8-70.3-53.2-78-37.5-8.7 23-7.7 43 1.7 60.6a32 32 0 0033.8 16.5c21.4-3.7 35.8-16.6 42.5-39.6z"/>

<path fill="#eabf9f" d="M202.2 99.6c34-8 67.5-7.6 100.4.9 9.3 2.3 14.9 8 13.7 14-7.5 39.7-60.1 79.2-70 71.6-10.8-8.2 2.3-31.4-9.5-33.1-10.4-1.5-25.9 15.9-37.8 11.8-2.7-.9-4.3-2.7-4.2-4.6a161 161 0 00-5.6-46.6c-1.8-6 3.6-11.8 13-14z"/>

<ellipse cx="250" cy="315" fill="#fff" rx="73.7" ry="48.3"/>
<path fill="#15212a" d="M270 272a20 20 0 01-40.1 0c0-11.1 9-13.7 20-13.7 11.2 0 20.2 2.6 20.2 13.7z"/>
<path fill="#f3252f" d="M240.2 306c0 21.3 19.6 21.3 19.6 0l-7.3-3.6-3.4-3.5-3.3 6-5.6 1.1z"/>
<path fill="#15212a" d="M270.2 292c-.8-.1-1.5.5-1.6 1.3-.3 5-2.4 8.7-5.6 10.2a7.3 7.3 0 01-7.3-.5c-2.6-1.7-4-4.8-4.2-8.7v-1-1.1c0-.8-.6-1.6-1.4-1.6h-.1-.1c-.9 0-1.5.8-1.4 1.6v2.1c-.2 3.9-1.7 7-4.2 8.7a7.3 7.3 0 01-7.4.5c-3.2-1.5-5.2-5.3-5.5-10.2-.1-.8-.8-1.4-1.6-1.4-.9 0-1.5.8-1.4 1.6.4 6 3 10.7 7.2 12.7a10.4 10.4 0 0010.3-.7c1.8-1.1 3.1-2.8 4-4.8 1 2 2.3 3.7 4 4.8a10.3 10.3 0 0010.4.7c4.2-2 6.9-6.7 7.3-12.7 0-.8-.6-1.5-1.4-1.6z"/>

<circle fill="#15212a" cx="168.96" cy="262.77" r="18.38"/>
<circle fill="#fff" cx="163.12" cy="256.93" r="5.84"/>
<circle fill="#15212a" cx="331.04" cy="262.77" r="18.38"/>
<circle fill="#fff" cx="325.2" cy="256.93" r="5.84"/>

<path fill="#15212a" d="M333 196.7h-.4l-27.6-2.1a5 5 0 01.8-10l27.5 2a5 5 0 01-.3 10zM166.6 196.7h.4l27.5-2.1a5 5 0 00-.7-10l-27.6 2a5 5 0 00.4 10z"/>

</svg>