<svg
xmlns="http://www.w3.org/2000/svg"
version="1.1"
width="500"
height="500"
viewBox="0 0 500 500"
>

<rect
width="500"
height="500"
rx="250"
fill="#ece2e1"
/>

<path fill="#f7ab85" d="M440.7 280.2c0 6.7-.4 13.1-1.2 19.2-1.1 7.9-2.9 15.2-5.3 21.9a86.3 86.3 0 01-20.7 32.6C393 374.3 362 385.2 325 390.6c-23 3.3-48.3 4.5-74.9 4.5a529 529 0 01-75-4.6c-68-9.8-115.7-38.4-115.7-110.3 0-96.3 85.4-174.3 190.7-174.3 95.7 0 175 64.4 188.6 148.3a161 161 0 012.1 26z"/>

<ellipse cx="323.8" cy="217.4" fill="#ffc9a3" rx="52.3" ry="77.6" transform="rotate(-32.5 323.8 217.4)"/>

<path fill="#f7ab85" d="M396.4 168.5l-4-4.2a190.3 190.3 0 00-74.2-47c9.7-15.7 38.6-48.2 59.6-54.2 4.6-1.4 9.6.7 12 4.8 22.4 38.8 11.6 84.5 6.6 100.6zM103.6 168.5l4-4.2a190.3 190.3 0 0174.2-47c-9.7-15.7-38.6-48.2-59.6-54.2-4.6-1.4-9.6.7-12 4.8-22.4 38.8-11.6 84.5-6.6 100.6z"/>
<path fill="#fec3aa" d="M392.4 164.3a190.3 190.3 0 00-57.6-40.2c8.4-12.5 28.6-34.4 43.4-38.7a8 8 0 019 3.6c16.8 28.9 9 62.8 5.2 75.3zM107.6 164.3a190.3 190.3 0 0157.6-40.2c-8.4-12.5-28.6-34.4-43.4-38.7a8 8 0 00-9 3.6c-16.8 28.9-9 62.8-5.2 75.3z"/>

<path fill="#fef6f4" d="M332 100.7c-10.2-27.5-29.9-29.9-53.6-21.5C273.2 72.5 266 67 250 66.3c-15.9.6-23.2 6.2-28.4 13-23.8-8.5-43.4-6.1-53.5 21.4-39 19.8-5.9 84.7 33 64.8 10.9 12 24.4 19.1 48.9 5.7 24.5 13.4 38 6.3 48.9-5.7 38.9 19.9 72-45 33-64.8z"/>

<path fill="#15212a" d="M249.8 294.6s-16.6-.3-16.6 4.9 11.6 18.9 16.6 18.9 16.7-14 16.7-18.9c0-5-16.7-5-16.7-5z"/>
<path fill="#15212a" d="M296.2 323l-.1.4a24 24 0 01-3.5 7.6 21.3 21.3 0 01-6 5.6 25 25 0 01-30.3-3.2c-1.8-2-3.1-4.4-3.8-7-.8-2.5-.9-5.2-.6-7.8l.2-1.5-1.5-.2v-.2l-.8.1h-.7v.1l-1.5.2.1 1.5c.4 2.6.3 5.3-.5 7.9-.7 2.5-2 5-3.8 6.9a25 25 0 01-30.3 3.3 21.2 21.2 0 01-6-5.7 24 24 0 01-3.5-7.6l-.1-.5-1 .3.2.4a25 25 0 003.4 8c1.6 2.5 3.7 4.6 6.2 6.3 4.9 3.3 11 4.7 16.8 4.3a25 25 0 0016.1-7.1c2.1-2.2 3.7-4.9 4.6-7.8 1 3 2.6 5.6 4.7 7.8a25 25 0 0016 7c6 .5 12-1 17-4.2a22.6 22.6 0 009.5-14.3l.1-.5-.9-.2z"/>
<path fill="#15212a" d="M148.9 311.9l.2-2 50.2 6.4-.2 2zM149.9 332.7l49.1-6.2.2 2-49 6.1zM160 357.1l40-21.8.9 1.8-40 21.8zM304.2 316.3l50.2-6.4.2 2-50.2 6.4zM304.2 328.5l.3-2 49 6.2-.2 2zM302.5 337l1-1.7 39.9 21.8-1 1.8z"/>

<circle cx="169" cy="254.5" r="17.2" fill="#15212a"/>
<circle cx="175.3" cy="247.8" r="5.9" fill="#fff"/>
<circle cx="331" cy="254.5" r="17.2" fill="#15212a"/>
<circle cx="324.7" cy="247.8" r="5.9" fill="#fff"/>

<path fill="#15212a" d="M333 196.7h-.4l-27.6-2.1a5 5 0 01.8-10l27.5 2a5 5 0 01-.3 10zM166.6 196.7h.4l27.5-2.1a5 5 0 00-.7-10l-27.6 2a5 5 0 00.4 10z"/>

</svg>