<svg
xmlns="http://www.w3.org/2000/svg"
version="1.1"
width="500"
height="500"
viewBox="0 0 500 500"
>

<rect
width="500"
height="500"
rx="250"
fill="#ece2e1"
/>

<path fill="#9ab1ed" d="M440.7 280.2c0 6.7-.4 13.1-1.2 19.2-1.1 7.9-2.9 15.2-5.3 21.9a86.3 86.3 0 01-20.7 32.6C393 374.3 362 385.2 325 390.6c-23 3.3-48.3 4.5-74.9 4.5a529 529 0 01-75-4.6c-68-9.8-115.7-38.4-115.7-110.3 0-96.3 85.4-174.3 190.7-174.3 95.7 0 175 64.4 188.6 148.3a161 161 0 012.1 26z"/>

<path fill="#b8cfff" d="M156 387.1c-57.8-12.3-96.7-42-96.7-107 0-9.4.8-18.6 2.4-27.6 19.1 3.4 39.3 17 53.6 38.1a105 105 0 015 8.2 73.6 73.6 0 0021 23.8c4.9 3.6 9.5 8.3 13.3 14 12.3 18.2 12.6 40 1.3 50.5z"/>

<path fill="#9ab1ed" d="M169 122.4a184.8 184.8 0 00-79.3 63.4c-6.5 9-12 18.8-16.5 29C64.7 177.9 46.6 85.4 78.9 84c27-1.1 66.6 22.4 90.1 38.3zM426.7 214.5c-3.9-8.7-8.5-17-13.7-24.9a184.5 184.5 0 00-82.1-67.3c23.5-15.8 63.1-39.4 90-38.2 32.3 1.3 14.3 93.3 5.8 130.4z"/>
<path fill="#fec3aa" d="M149.2 132.2c-23.9 13.6-44.3 32-59.5 53.6-5.7-27-13.2-74.9 5.5-75.7 15.9-.6 38.7 12.1 54 22zM413 189.6a184.5 184.5 0 00-65.4-59.1c16.7-11 42-25.3 59.6-24.6 20.6 1 12 54.6 5.8 83.7z"/>

<path fill="#15212a" d="M277.6 291.26c0 9.56-12.36 21.7-27.6 21.7s-27.6-12.14-27.6-21.7 12.36-14.83 27.6-14.83 27.6 5.28 27.6 14.83zM219.24 307.93c-4.98-1.74-10.12-3-15.35-3.67a69.16 69.16 0 0 0-15.82-.22c-10.56 1.04-20.83 4.51-30.4 9.27l-.35-.68c9.45-5.11 19.73-9.01 30.53-10.46 5.39-.73 10.87-.85 16.3-.34 5.44.51 10.81 1.63 16.03 3.25l-.94 2.85zM219.98 312.52c-9.35 1.47-18.46 4.57-26.91 8.99-8.47 4.42-16.28 10.1-23.44 16.51l-.36-.39c6.9-6.73 14.53-12.8 22.95-17.67 8.4-4.87 17.62-8.46 27.23-10.4l.53 2.96zM222.41 318.16a45.94 45.94 0 0 0-10.58 6.51c-3.22 2.65-6.07 5.75-8.52 9.17-4.91 6.84-8.2 14.81-10.48 23.01l-.64-.16c1.92-8.34 4.86-16.58 9.61-23.88 2.37-3.64 5.19-7.02 8.45-9.96 3.25-2.94 6.93-5.43 10.87-7.4l1.29 2.71zM232.69 317.9c-6.32 5.69-11.5 12.7-14.8 20.62-3.35 7.91-4.8 16.59-4.95 25.25h-.47c-.27-8.71.76-17.58 3.8-25.89 1.51-4.15 3.5-8.14 5.93-11.86 2.42-3.72 5.27-7.17 8.42-10.31l2.07 2.19z"/>
<path fill="#15212a" d="M280.76 307.93c4.98-1.74 10.12-3 15.35-3.67a69.16 69.16 0 0 1 15.82-.22c10.56 1.04 20.83 4.51 30.4 9.27l.35-.68c-9.45-5.11-19.73-9.01-30.53-10.46-5.39-.73-10.87-.85-16.3-.34-5.44.51-10.81 1.63-16.03 3.25l.94 2.85zM280.02 312.52c9.35 1.47 18.46 4.57 26.91 8.99 8.47 4.42 16.28 10.1 23.44 16.51l.36-.39c-6.9-6.73-14.53-12.8-22.95-17.67-8.4-4.87-17.62-8.46-27.23-10.4l-.53 2.96zM277.59 318.16a45.94 45.94 0 0 1 10.58 6.51c3.22 2.65 6.07 5.75 8.52 9.17 4.91 6.84 8.2 14.81 10.48 23.01l.64-.16c-1.92-8.34-4.86-16.58-9.61-23.88-2.37-3.64-5.19-7.02-8.45-9.96a48.654 48.654 0 0 0-10.87-7.4l-1.29 2.71zM267.31 317.9c6.32 5.69 11.5 12.7 14.8 20.62 3.35 7.91 4.8 16.59 4.95 25.25h.47c.27-8.71-.76-17.58-3.8-25.89-1.51-4.15-3.5-8.14-5.93-11.86-2.42-3.72-5.27-7.17-8.42-10.31l-2.07 2.19z"/>

<circle cx="169" cy="254.2" r="18.9" fill="#15212a"/>
<circle cx="175.9" cy="258.3" r="6.3" fill="#fff"/>
<circle cx="331" cy="254.2" r="18.9" fill="#15212a"/>
<circle cx="324.1" cy="258.3" r="6.3" fill="#fff"/>

<path fill="#15212a" d="M139.8 203c-1 0-2-.3-2.8-.9a5 5 0 01-1.3-7c10.5-15.5 25.8-20.4 45.7-14.5a5 5 0 11-2.9 9.6c-15.6-4.7-26.6-1.3-34.5 10.6a5 5 0 01-4.2 2.2zM361.4 203a5 5 0 01-4.2-2.2c-8-12-19-15.3-34.5-10.6a5 5 0 11-2.9-9.6c19.9-6 35.2-1 45.7 14.6a5 5 0 01-4.1 7.8z"/>

</svg>