<svg
xmlns="http://www.w3.org/2000/svg"
version="1.1"
width="500"
height="500"
viewBox="0 0 500 500"
>

<rect
width="500"
height="500"
rx="250"
fill="#ece2e1"
/>

<path fill="#eef998" d="M440.7 280.2c0 6.7-.4 13.1-1.2 19.2-1.1 7.9-2.9 15.2-5.3 21.9a86.3 86.3 0 01-20.7 32.6C393 374.3 362 385.2 325 390.6c-23 3.3-48.3 4.5-74.9 4.5a529 529 0 01-75-4.6c-68-9.8-115.7-38.4-115.7-110.3 0-96.3 85.4-174.3 190.7-174.3 95.7 0 175 64.4 188.6 148.3a161 161 0 012.1 26z"/>

<path fill="#eef998" d="M169 122.4a194.5 194.5 0 00-56.5 37c-29.4-10.7-40.3-32.4-41-60.1 37-5.4 76.7-3 97.4 23.1zM331 122.4a194.5 194.5 0 0156.4 37c29.5-10.7 40.4-32.4 41.1-60.1-37-5.4-76.7-3-97.5 23.1z"/>
<path fill="#fec3aa" d="M148.6 132.6c-12.3 7-23.7 15.4-33.9 24.7-20.7-8.3-28.4-24.3-29-44.6 27.2-4 49.4.6 62.9 19.9zM351.4 132.6c12.3 7 23.6 15.4 33.8 24.7 20.8-8.3 28.5-24.3 29-44.6-27.1-4-49.3.6-62.8 19.9z"/>

<ellipse cx="250" cy="315" fill="#fff" rx="73.7" ry="48.3"/>
<path fill="#15212a" d="M270 272a20 20 0 01-40.1 0c0-11.1 9-13.7 20-13.7 11.2 0 20.2 2.6 20.2 13.7z"/>
<path fill="#f3252f" d="M240.2 306c0 21.3 19.6 21.3 19.6 0l-7.3-3.6-3.4-3.5-3.3 6-5.6 1.1z"/>
<path fill="#15212a" d="M270.2 292c-.8-.1-1.5.5-1.6 1.3-.3 5-2.4 8.7-5.6 10.2a7.3 7.3 0 01-7.3-.5c-2.6-1.7-4-4.8-4.2-8.7v-1-1.1c0-.8-.6-1.6-1.4-1.6h-.1-.1c-.9 0-1.5.8-1.4 1.6v2.1c-.2 3.9-1.7 7-4.2 8.7a7.3 7.3 0 01-7.4.5c-3.2-1.5-5.2-5.3-5.5-10.2-.1-.8-.8-1.4-1.6-1.4-.9 0-1.5.8-1.4 1.6.4 6 3 10.7 7.2 12.7a10.4 10.4 0 0010.3-.7c1.8-1.1 3.1-2.8 4-4.8 1 2 2.3 3.7 4 4.8a10.3 10.3 0 0010.4.7c4.2-2 6.9-6.7 7.3-12.7 0-.8-.6-1.5-1.4-1.6z"/>

<circle fill="#15212a" cx="180.11" cy="258.32" r="17.11"/>
<circle fill="#fff" cx="174.66" cy="252.88" r="5.44"/>
<circle fill="#15212a" cx="320.02" cy="258.32" r="17.11"/>
<circle fill="#fff" cx="314.58" cy="252.88" r="5.44"/>

<path fill="#15212a" d="M139.8 203c-1 0-2-.3-2.8-.9a5 5 0 01-1.3-7c10.5-15.5 25.8-20.4 45.7-14.5a5 5 0 11-2.9 9.6c-15.6-4.7-26.6-1.3-34.5 10.6a5 5 0 01-4.2 2.2zM361.4 203a5 5 0 01-4.2-2.2c-8-12-19-15.3-34.5-10.6a5 5 0 11-2.9-9.6c19.9-6 35.2-1 45.7 14.6a5 5 0 01-4.1 7.8z"/>

</svg>