<svg
xmlns="http://www.w3.org/2000/svg"
version="1.1"
width="500"
height="500"
viewBox="0 0 500 500"
>

<rect
width="500"
height="500"
rx="250"
fill="#b5f4bc"
/>

<path fill="#f7ab85" d="M440.7 280.2c0 6.7-.4 13.1-1.2 19.2-1.1 7.9-2.9 15.2-5.3 21.9a86.3 86.3 0 01-20.7 32.6C393 374.3 362 385.2 325 390.6c-23 3.3-48.3 4.5-74.9 4.5a529 529 0 01-75-4.6c-68-9.8-115.7-38.4-115.7-110.3 0-96.3 85.4-174.3 190.7-174.3 95.7 0 175 64.4 188.6 148.3a161 161 0 012.1 26z"/>

<path fill="#ffc9a3" d="M235 161.3c14.4 27.5 0 71-41.1 115.2-31.8 34.1-86.6 16.8-101-10.8s7.5-67.4 48.9-89 78.9-43 93.3-15.4z"/>

<path fill="#bb6f49" d="M107.1 128.2c-47.4 23-20.8 59 31.7 51.7 7.2-1 13.2-6.2 15.3-13.2 15.1-50.7-17-82-47-38.5zM392.2 128.2c47.4 23 20.8 59-31.8 51.7-7.2-1-13.1-6.2-15.2-13.2-15.1-50.7 17-82 47-38.5z"/>

<path fill="#15212a" d="M249.23 293.56c-24.54-7.26-40.9-32.68 1.34-33.81 40.65 1.14 25.14 26.93 1.34 33.82-.87.25-1.81.24-2.68-.01z"/>
<path fill="#15212a" d="M288.25 294.99c-7.94 7.07-15.74 12.03-23.51 14.78a42.65 42.65 0 0 1-15.01 2.74 41.63 41.63 0 0 1-14.75-2.68c-7.73-2.74-15.47-7.7-23.24-14.88a1.62 1.62 0 0 1-.1-2.31 1.67 1.67 0 0 1 2.35-.1c7.78 7.15 15.41 12.03 23.02 14.58 1.19.4 2.37.74 3.56 1.03a38.47 38.47 0 0 0 18.35 0c1.15-.28 2.3-.6 3.46-.99 7.74-2.54 15.59-7.43 23.65-14.65a1.7 1.7 0 0 1 2.35.13c.59.69.56 1.75-.13 2.35z"/>

<circle fill="#15212a" cx="331.04" cy="253.21" r="22.21"/>
<circle fill="#fff" cx="338.81" cy="246.07" r="8.97"/>
<circle fill="#fff" cx="322.5" cy="263.97" r="5.01"/>
<circle fill="#15212a" cx="168.96" cy="253.21" r="22.21"/>
<circle fill="#fff" cx="161.19" cy="246.07" r="8.97"/>
<circle fill="#fff" cx="177.5" cy="263.97" r="5.01"/>

<path fill="#15212a" d="M333 196.7h-.4l-27.6-2.1a5 5 0 01.8-10l27.5 2a5 5 0 01-.3 10zM166.6 196.7h.4l27.5-2.1a5 5 0 00-.7-10l-27.6 2a5 5 0 00.4 10z"/>

</svg>