<svg
xmlns="http://www.w3.org/2000/svg"
version="1.1"
width="500"
height="500"
viewBox="0 0 500 500"
>

<rect
width="500"
height="500"
rx="250"
fill="#ece2e1"
/>

<path fill="#f7afea" d="M440.7 280.2c0 6.7-.4 13.1-1.2 19.2-1.1 7.9-2.9 15.2-5.3 21.9a86.3 86.3 0 01-20.7 32.6C393 374.3 362 385.2 325 390.6c-23 3.3-48.3 4.5-74.9 4.5a529 529 0 01-75-4.6c-68-9.8-115.7-38.4-115.7-110.3 0-96.3 85.4-174.3 190.7-174.3 95.7 0 175 64.4 188.6 148.3a161 161 0 012.1 26z"/>

<path fill="#d991cc" d="M169 122.4C124 57.5 37.6 128 57 176.8c22.1 31.3 49.5 25.6 82.5-20.4a36 36 0 006.7-22.5c7.6-4.4 15.1-8.3 22.8-11.5zM331 122.4c44.9-64.9 131.4 5.7 112 54.4-22.1 31.3-49.5 25.6-82.5-20.4a36 36 0 01-6.7-22.5c-7.6-4.4-15.1-8.3-22.8-11.5z"/>
<path fill="#15212a" d="M146.2 134c-.8-14-5-23.9-13.5-28 11.2-1 21.6 4.6 30.8 18.8l-17.3 9.1zM353.8 134c.8-14 5-23.9 13.5-28-11.2-1-21.6 4.6-30.8 18.8l17.3 9.1z"/>

<path fill="#f7afea" d="M309.5 114.6c-18.7-5.6-38.7-8.6-59.4-8.6 -10.6 0-21 0.8-31.1 2.3 -8.1-10.8-13-23.6-14-37 0-0.4-0.1-0.8-0.1-1.2 -0.6-11.3 5.6-23.1 5.6-23.1s1.8 10.8 8.9 24.3c7 13.2 19.6 18.4 20 18.6 -0.1-0.2-3.4-4.4-1.2-21.4 2.6-19.5 18.6-28.4 18.6-28.4s-4 11.7-2 25c2.5 16.2 15.9 27.3 15.9 27.3s0.3-8.3 5.2-21.5c4.9-13.2 15.7-20.7 15.7-20.7s-2.4 9.8-2.4 27.9C289 93.1 304.5 109.6 309.5 114.6z"/>

<path fill="#fff" d="M210.3 362L193 359a3.2 3.2 0 01-2.6-3.4l1.1-18c.1-1.9 2-3.3 3.8-3l22 4c2 .4 3.2 2.5 2.5 4.3l-6 17.1c-.4 1.5-2 2.4-3.6 2.1zM289.8 362L307 359a3.2 3.2 0 002.6-3.4l-1.1-18c-.1-1.9-2-3.3-3.8-3l-22 4c-2 .4-3.2 2.5-2.5 4.3l6 17.1c.4 1.5 2 2.4 3.6 2.1z"/>
<path fill="#d991cc" d="M275.7 273.1c-9.4 0-18.2-1.5-25.7 2-7.5-3.5-16.3-2-25.7-2-27.9 0-50.5 17.4-50.5 39 0 21.4 22.6 38.8 50.5 38.8 9.4 0 18.2-6.8 25.7-10.2 7.5 3.4 16.3 10.2 25.7 10.2 27.9 0 50.5-17.4 50.5-38.9s-22.6-38.9-50.5-38.9z"/>
<path fill="#15212a" d="M219.9 307.1c-.9 0-1.7 0-2.6-.2a4 4 0 01.5-8h2.1c2.6 0 4.6-1 5.5-5.8a4 4 0 014.7-3.2 4 4 0 013.2 4.7c-1.5 8-6.3 12.5-13.4 12.5zM281.1 307.1c.9 0 1.7 0 2.6-.2a4 4 0 00-.5-8h-2.1c-2.6 0-4.6-1-5.5-5.8a4 4 0 00-4.7-3.2 4 4 0 00-3.2 4.7c1.5 8 6.3 12.5 13.4 12.5z"/>

<circle cx="169" cy="254.5" r="17.2" fill="#15212a"/>
<circle cx="175.3" cy="247.8" r="5.9" fill="#fff"/>
<circle cx="331" cy="254.5" r="17.2" fill="#15212a"/>
<circle cx="324.7" cy="247.8" r="5.9" fill="#fff"/>

<ellipse fill="#15212a" cx="348" cy="190.6" rx="8.3" ry="19.4" transform="rotate(-57.5 348 190.6)"/>
<ellipse fill="#15212a" cx="152" cy="205.1" rx="19.4" ry="8.3" transform="rotate(-32.5 152 205)"/>

</svg>