<svg
xmlns="http://www.w3.org/2000/svg"
version="1.1"
width="500"
height="500"
viewBox="0 0 500 500"
>

<rect
width="500"
height="500"
rx="250"
fill="#fcf7d1"
/>

<path fill="#ffc1df" d="M440.7 280.2c0 6.7-.4 13.1-1.2 19.2-1.1 7.9-2.9 15.2-5.3 21.9a86.3 86.3 0 01-20.7 32.6C393 374.3 362 385.2 325 390.6c-23 3.3-48.3 4.5-74.9 4.5a529 529 0 01-75-4.6c-68-9.8-115.7-38.4-115.7-110.3 0-96.3 85.4-174.3 190.7-174.3 95.7 0 175 64.4 188.6 148.3a161 161 0 012.1 26z"/>

<path fill="#ffdffd" d="M235 161.3c14.4 27.5 0 71-41.1 115.2-31.8 34.1-86.6 16.8-101-10.8s7.5-67.4 48.9-89 78.9-43 93.3-15.4z"/>

<path fill="#ffc1df" d="M169 122.4a194.5 194.5 0 00-56.5 37c-29.4-10.7-40.3-32.4-41-60.1 37-5.4 76.7-3 97.4 23.1zM331 122.4a194.5 194.5 0 0156.4 37c29.5-10.7 40.4-32.4 41.1-60.1-37-5.4-76.7-3-97.5 23.1z"/>
<path fill="#fec3aa" d="M148.6 132.6c-12.3 7-23.7 15.4-33.9 24.7-20.7-8.3-28.4-24.3-29-44.6 27.2-4 49.4.6 62.9 19.9zM351.4 132.6c12.3 7 23.6 15.4 33.8 24.7 20.8-8.3 28.5-24.3 29-44.6-27.1-4-49.3.6-62.8 19.9z"/>

<path fill="#e1a3c1" d="M297.8 78.3a4.8 4.8 0 01-4.2 5.2c-4.2.4-8.3 1-12.2 2-3.9 1-7.6 2.6-11 4.6a37.6 37.6 0 00-12.9 12.3l-1.5 2.7-.5.9a165.9 165.9 0 00-8.8 0l-1.5-3c-.9-.6-1.8-1.3-2.8-1.8-3-1.6-6.3-2.5-9.6-2.8-6.8-.6-13.7.6-20.5 2.4a3.8 3.8 0 11-1.5-7.5c3.7-.5 7.5-.9 11.3-1 3.8 0 7.7.3 11.5 1.1 2.2.5 4.4 1.2 6.5 2.2-2-2.4-4.3-4.6-6.9-6.5-6.9-5-15.4-7.3-24.1-7.6a5.7 5.7 0 11.4-11.5h.6c5.1.7 10.3 2 15.2 4a47.7 47.7 0 0123 20 65.6 65.6 0 00-11.5-38.4 6.7 6.7 0 1111.7-6.7v.1a76.7 76.7 0 017 44 42 42 0 0110.3-10c4-2.8 8.5-4.9 13-6.3 4.6-1.4 9.2-2.4 13.9-2.8 2.6-.2 5 1.8 5.1 4.4z"/>

<path fill="#e1a3c1" d="M316.5 341.28c-6.67 6.12-14.33 9.99-21.58 11.43l-.36.24-1.63 1.01c-11.86 7.12-26.8 11.37-43.04 11.37-16.53 0-31.7-4.4-43.66-11.75-.51-.31-1.02-.63-1.51-.96l-.34-.23c-7.05-1.54-14.43-5.36-20.88-11.29-14.57-13.4-18.84-32.48-9.52-42.63a19.02 19.02 0 0 1 10.68-5.72h.01c9.45-1.01 20.45 3.37 32.59 11.61-11.89-11.69-21.25-15.66-29.64-16.7 11.51-17.41 35.06-29.35 62.28-29.35 27.32 0 50.95 12.03 62.42 29.55-8.37 1.04-17.72 5.04-29.57 16.68 12.13-8.23 23.14-12.61 32.58-11.61h.02c4.19.8 7.9 2.68 10.68 5.72 9.31 10.14 5.05 29.22-9.53 42.63z"/>
<path fill="#15212a" d="M194.37 301.88s18.83 13.68 21.26 20.7c1.87 5.39 2.8 12.87-4.48 16.23-7.27 3.36-12.72 1.91-16.79-3.36-4.11-5.33-10.83-42.37.01-33.57zM305.64 302.06s-18.68 13.37-21.26 20.7c-1.9 5.38-2.8 12.87 4.48 16.23 7.27 3.36 12.05 1.62 16.79-3.36 4.63-4.87 10.82-42.37-.01-33.57zM294.92 352.71l-1.99 1.25c-16.29 3.18-26.04.33-34.81-2.98-5.06-1.92-10.71-1.47-16-.38-9.85 2.02-18.62 5.91-35.88 2.98a73.1 73.1 0 0 1-1.86-1.19c6.3.59 16.16 1.36 21.54 0 8.52-2.16 12.2-7.52 23.98-7.52 11.77 0 11.05 4.08 20.29 7.52 6.02 2.23 17.63 1.16 24.73.32z"/>

<circle fill="#15212a" cx="168.62" cy="248.28" r="15.49"/>
<circle fill="#fff" cx="163.62" cy="242.97" r="4.95"/>
<circle fill="#15212a" cx="331.04" cy="248.28" r="15.49"/>
<circle fill="#fff" cx="336.04" cy="242.97" r="4.95"/>

<ellipse fill="#15212a" cx="348" cy="190.6" rx="8.3" ry="19.4" transform="rotate(-57.5 348 190.6)"/>
<ellipse fill="#15212a" cx="152" cy="205.1" rx="19.4" ry="8.3" transform="rotate(-32.5 152 205)"/>

</svg>