<svg
xmlns="http://www.w3.org/2000/svg"
version="1.1"
width="500"
height="500"
viewBox="0 0 500 500"
>

<rect
width="500"
height="500"
rx="250"
fill="#b5f4bc"
/>

<path fill="#e373ef" d="M440.7 280.2c0 6.7-.4 13.1-1.2 19.2-1.1 7.9-2.9 15.2-5.3 21.9a86.3 86.3 0 01-20.7 32.6C393 374.3 362 385.2 325 390.6c-23 3.3-48.3 4.5-74.9 4.5a529 529 0 01-75-4.6c-68-9.8-115.7-38.4-115.7-110.3 0-96.3 85.4-174.3 190.7-174.3 95.7 0 175 64.4 188.6 148.3a161 161 0 012.1 26z"/>

<path fill="#e373ef" d="M169 122.4a194.5 194.5 0 00-56.5 37c-29.4-10.7-40.3-32.4-41-60.1 37-5.4 76.7-3 97.4 23.1zM331 122.4a194.5 194.5 0 0156.4 37c29.5-10.7 40.4-32.4 41.1-60.1-37-5.4-76.7-3-97.5 23.1z"/>
<path fill="#fec3aa" d="M148.6 132.6c-12.3 7-23.7 15.4-33.9 24.7-20.7-8.3-28.4-24.3-29-44.6 27.2-4 49.4.6 62.9 19.9zM351.4 132.6c12.3 7 23.6 15.4 33.8 24.7 20.8-8.3 28.5-24.3 29-44.6-27.1-4-49.3.6-62.8 19.9z"/>

<path fill="#c555d1" d="M297.8 78.3a4.8 4.8 0 01-4.2 5.2c-4.2.4-8.3 1-12.2 2-3.9 1-7.6 2.6-11 4.6a37.6 37.6 0 00-12.9 12.3l-1.5 2.7-.5.9a165.9 165.9 0 00-8.8 0l-1.5-3c-.9-.6-1.8-1.3-2.8-1.8-3-1.6-6.3-2.5-9.6-2.8-6.8-.6-13.7.6-20.5 2.4a3.8 3.8 0 11-1.5-7.5c3.7-.5 7.5-.9 11.3-1 3.8 0 7.7.3 11.5 1.1 2.2.5 4.4 1.2 6.5 2.2-2-2.4-4.3-4.6-6.9-6.5-6.9-5-15.4-7.3-24.1-7.6a5.7 5.7 0 11.4-11.5h.6c5.1.7 10.3 2 15.2 4a47.7 47.7 0 0123 20 65.6 65.6 0 00-11.5-38.4 6.7 6.7 0 1111.7-6.7v.1a76.7 76.7 0 017 44 42 42 0 0110.3-10c4-2.8 8.5-4.9 13-6.3 4.6-1.4 9.2-2.4 13.9-2.8 2.6-.2 5 1.8 5.1 4.4z"/>

<path fill="#fff" d="M324.7 343.4c0 34.5-33.4 29.8-74.7 29.8s-74.7 4.7-74.7-29.8 33.4-62.2 74.7-62.2 74.7 27.8 74.7 62.3z"/>
<path fill="#15212a" d="M274.4 312.3c-.9 0-1.5.7-1.5 1.5 0 6-5.6 8.7-10.7 8.7-4.9 0-10.1-2.5-10.6-7.8v-14.3c13-.1 23.3-1.5 23.3-10.1 0-9-11.2-16.2-24.9-16.2s-24.9 7.2-24.9 16.2c0 8.6 10.3 10 23.3 10v14.5c-.5 5.3-5.7 7.7-10.6 7.7-5.1 0-10.6-2.7-10.6-8.7a1.5 1.5 0 10-3 0c0 3.6 1.5 6.7 4.4 8.8 2.4 1.9 5.7 2.9 9.2 2.9 4.9 0 9.8-2.1 12.2-6.1.7 1.2 1.7 2.3 3 3.2 2.4 1.8 5.7 2.8 9.2 2.8 6.8 0 13.7-4 13.7-11.6 0-.8-.7-1.5-1.5-1.5z"/>

<path fill="#15212a" d="M339.3 256.8c0 15.3-8 15.1-17.9 15.1-9.8 0-17.8.2-17.8-15 0-15.4 8-27.8 17.8-27.8 9.9 0 17.9 12.4 17.9 27.7z"/>
<ellipse cx="329.2" cy="241.9" fill="#fff" rx="5.1" ry="7.5" transform="rotate(-22 329.2 242)"/>
<path fill="#15212a" d="M196.5 256.8c0 15.3-8 15.1-18 15.1s-17.8.2-17.8-15c0-15.4 8-27.8 17.9-27.8s17.9 12.4 17.9 27.7z"/>
<ellipse cx="186.4" cy="241.9" fill="#fff" rx="5.1" ry="7.5" transform="rotate(-22 186.4 242)"/>

<path fill="#15212a" d="M139.8 203c-1 0-2-.3-2.8-.9a5 5 0 01-1.3-7c10.5-15.5 25.8-20.4 45.7-14.5a5 5 0 11-2.9 9.6c-15.6-4.7-26.6-1.3-34.5 10.6a5 5 0 01-4.2 2.2zM361.4 203a5 5 0 01-4.2-2.2c-8-12-19-15.3-34.5-10.6a5 5 0 11-2.9-9.6c19.9-6 35.2-1 45.7 14.6a5 5 0 01-4.1 7.8z"/>

</svg>