<svg
xmlns="http://www.w3.org/2000/svg"
version="1.1"
width="500"
height="500"
viewBox="0 0 500 500"
>

<rect
width="500"
height="500"
rx="250"
fill="#e4e3cd"
/>

<path fill="#9ab1ed" d="M440.7 280.2c0 6.7-.4 13.1-1.2 19.2-1.1 7.9-2.9 15.2-5.3 21.9a86.3 86.3 0 01-20.7 32.6C393 374.3 362 385.2 325 390.6c-23 3.3-48.3 4.5-74.9 4.5a529 529 0 01-75-4.6c-68-9.8-115.7-38.4-115.7-110.3 0-96.3 85.4-174.3 190.7-174.3 95.7 0 175 64.4 188.6 148.3a161 161 0 012.1 26z"/>

<path fill="#5e75b1" d="M107.1 128.2c-47.4 23-20.8 59 31.7 51.7 7.2-1 13.2-6.2 15.3-13.2 15.1-50.7-17-82-47-38.5zM392.2 128.2c47.4 23 20.8 59-31.8 51.7-7.2-1-13.1-6.2-15.2-13.2-15.1-50.7 17-82 47-38.5z"/>

<path fill="#eabf9f" d="M202.2 99.6c34-8 67.5-7.6 100.4.9 9.3 2.3 14.9 8 13.7 14-7.5 39.7-60.1 79.2-70 71.6-10.8-8.2 2.3-31.4-9.5-33.1-10.4-1.5-25.9 15.9-37.8 11.8-2.7-.9-4.3-2.7-4.2-4.6a161 161 0 00-5.6-46.6c-1.8-6 3.6-11.8 13-14z"/>

<path fill="#fff" d="M299.9 307.2c0 35-22.3 63.3-49.9 63.3s-49.9-28.3-49.9-63.3 22.4-46.7 49.9-46.7 49.9 11.8 49.9 46.7z"/>
<path fill="#f3252f" d="M250 315l12.3 7.8c0 23-24.2 23.2-24.4.4v-.4l12.1-7.7z"/>
<path fill="#15212a" d="M285.2 316c-.8-.3-1.6.2-1.8 1-.9 2.9-3.1 4.8-6.7 5.7A26.5 26.5 0 01254 316c-.5-.5-1-1-1.3-1.6v-7.2c15-1 26.7-11 26.7-22.9 0-12.7-13.2-11.2-29.4-11.2s-29.4-1.5-29.4 11.2c0 12 11.8 21.9 26.8 22.9v7c-.4.7-.9 1.3-1.4 1.8a26.6 26.6 0 01-22.7 6.6c-3.6-1-5.9-2.8-6.7-5.7-.2-.8-1-1.3-1.8-1-.8.2-1.3 1-1 1.8 1 4 4.1 6.6 8.7 7.8a29.9 29.9 0 0025.6-7.3c.8-.8 1.4-1.6 1.9-2.4.5.8 1.1 1.6 1.9 2.3a29.9 29.9 0 0025.6 7.4c4.6-1.2 7.6-3.9 8.8-7.8.2-.8-.3-1.6-1-1.9z"/>

<circle cx="169" cy="254.5" r="17.2" fill="#15212a"/>
<circle cx="175.3" cy="247.8" r="5.9" fill="#fff"/>
<circle cx="331" cy="254.5" r="17.2" fill="#15212a"/>
<circle cx="324.7" cy="247.8" r="5.9" fill="#fff"/>

<path fill="#15212a" d="M333 196.7h-.4l-27.6-2.1a5 5 0 01.8-10l27.5 2a5 5 0 01-.3 10zM166.6 196.7h.4l27.5-2.1a5 5 0 00-.7-10l-27.6 2a5 5 0 00.4 10z"/>

</svg>