<svg
xmlns="http://www.w3.org/2000/svg"
version="1.1"
width="500"
height="500"
viewBox="0 0 500 500"
>

<rect
width="500"
height="500"
rx="250"
fill="#c4ddd6"
/>

<path fill="#eef998" d="M440.7 280.2c0 6.7-.4 13.1-1.2 19.2-1.1 7.9-2.9 15.2-5.3 21.9a86.3 86.3 0 01-20.7 32.6C393 374.3 362 385.2 325 390.6c-23 3.3-48.3 4.5-74.9 4.5a529 529 0 01-75-4.6c-68-9.8-115.7-38.4-115.7-110.3 0-96.3 85.4-174.3 190.7-174.3 95.7 0 175 64.4 188.6 148.3a161 161 0 012.1 26z"/>

<path fill="#eef998" d="M132.3 143a185.8 185.8 0 00-42.6 42.7c-28.4-20.8-36.5-43-31.4-66.4a86.2 86.2 0 018.4-22.1c33.5 4 56.8 18 65.6 45.9zM409.9 185.1a176.3 176.3 0 00-43.1-42.7c9-27.4 32.1-41.2 65.4-45.2 4 7.5 6.8 14.8 8.3 22.1 5.1 23.1-2.8 45.2-30.6 65.8z"/>
<path fill="#fec3aa" d="M103.9 168.2c-5.1 5.5-9.9 11.4-14.2 17.5-28.4-20.8-36.5-43-31.4-66.4 6.8 2.4 16.2 6.7 27 14.4a48.3 48.3 0 0118.6 34.5zM409.9 185.1c-4.5-6.3-9.4-12.3-14.7-18a47.9 47.9 0 0118.4-33.4c10.8-7.7 20.1-12 27-14.4 5 23.1-3 45.2-30.7 65.8z"/>

<ellipse cx="250" cy="315" fill="#fff" rx="73.7" ry="48.3"/>
<path fill="#15212a" d="M270 272a20 20 0 01-40.1 0c0-11.1 9-13.7 20-13.7 11.2 0 20.2 2.6 20.2 13.7z"/>
<path fill="#f3252f" d="M240.2 306c0 21.3 19.6 21.3 19.6 0l-7.3-3.6-3.4-3.5-3.3 6-5.6 1.1z"/>
<path fill="#15212a" d="M270.2 292c-.8-.1-1.5.5-1.6 1.3-.3 5-2.4 8.7-5.6 10.2a7.3 7.3 0 01-7.3-.5c-2.6-1.7-4-4.8-4.2-8.7v-1-1.1c0-.8-.6-1.6-1.4-1.6h-.1-.1c-.9 0-1.5.8-1.4 1.6v2.1c-.2 3.9-1.7 7-4.2 8.7a7.3 7.3 0 01-7.4.5c-3.2-1.5-5.2-5.3-5.5-10.2-.1-.8-.8-1.4-1.6-1.4-.9 0-1.5.8-1.4 1.6.4 6 3 10.7 7.2 12.7a10.4 10.4 0 0010.3-.7c1.8-1.1 3.1-2.8 4-4.8 1 2 2.3 3.7 4 4.8a10.3 10.3 0 0010.4.7c4.2-2 6.9-6.7 7.3-12.7 0-.8-.6-1.5-1.4-1.6z"/>

<circle cx="169" cy="250" r="20.4" fill="#15212a"/>
<circle cx="175.4" cy="255.8" r="9.6" fill="#fff"/>
<circle cx="159.4" cy="241" r="4.2" fill="#fff"/>
<circle cx="331" cy="250" r="20.4" fill="#15212a"/>
<circle cx="324.6" cy="255.8" r="9.6" fill="#fff"/>
<circle cx="340.6" cy="241" r="4.2" fill="#fff"/>

<ellipse fill="#15212a" cx="348" cy="190.6" rx="8.3" ry="19.4" transform="rotate(-57.5 348 190.6)"/>
<ellipse fill="#15212a" cx="152" cy="205.1" rx="19.4" ry="8.3" transform="rotate(-32.5 152 205)"/>

</svg>