<svg
xmlns="http://www.w3.org/2000/svg"
version="1.1"
width="500"
height="500"
viewBox="0 0 500 500"
>

<rect
width="500"
height="500"
rx="250"
fill="#b5f4bc"
/>

<path fill="#76fcf5" d="M440.7 280.2c0 6.7-.4 13.1-1.2 19.2-1.1 7.9-2.9 15.2-5.3 21.9a86.3 86.3 0 01-20.7 32.6C393 374.3 362 385.2 325 390.6c-23 3.3-48.3 4.5-74.9 4.5a529 529 0 01-75-4.6c-68-9.8-115.7-38.4-115.7-110.3 0-96.3 85.4-174.3 190.7-174.3 95.7 0 175 64.4 188.6 148.3a161 161 0 012.1 26z"/>

<path fill="#94ffff" d="M235 161.3c14.4 27.5 0 71-41.1 115.2-31.8 34.1-86.6 16.8-101-10.8s7.5-67.4 48.9-89 78.9-43 93.3-15.4z"/>

<path fill="#76fcf5" d="M169 122.4a194.5 194.5 0 00-56.5 37c-29.4-10.7-40.3-32.4-41-60.1 37-5.4 76.7-3 97.4 23.1zM331 122.4a194.5 194.5 0 0156.4 37c29.5-10.7 40.4-32.4 41.1-60.1-37-5.4-76.7-3-97.5 23.1z"/>
<path fill="#fec3aa" d="M148.6 132.6c-12.3 7-23.7 15.4-33.9 24.7-20.7-8.3-28.4-24.3-29-44.6 27.2-4 49.4.6 62.9 19.9zM351.4 132.6c12.3 7 23.6 15.4 33.8 24.7 20.8-8.3 28.5-24.3 29-44.6-27.1-4-49.3.6-62.8 19.9z"/>

<path fill="#eabf9f" d="M202.2 99.6c34-8 67.5-7.6 100.4.9 9.3 2.3 14.9 8 13.7 14-7.5 39.7-60.1 79.2-70 71.6-10.8-8.2 2.3-31.4-9.5-33.1-10.4-1.5-25.9 15.9-37.8 11.8-2.7-.9-4.3-2.7-4.2-4.6a161 161 0 00-5.6-46.6c-1.8-6 3.6-11.8 13-14z"/>

<path fill="#15212a" d="M249.8 294.6s-16.6-.3-16.6 4.9 11.6 18.9 16.6 18.9 16.7-14 16.7-18.9c0-5-16.7-5-16.7-5z"/>
<path fill="#15212a" d="M296.2 323l-.1.4a24 24 0 01-3.5 7.6 21.3 21.3 0 01-6 5.6 25 25 0 01-30.3-3.2c-1.8-2-3.1-4.4-3.8-7-.8-2.5-.9-5.2-.6-7.8l.2-1.5-1.5-.2v-.2l-.8.1h-.7v.1l-1.5.2.1 1.5c.4 2.6.3 5.3-.5 7.9-.7 2.5-2 5-3.8 6.9a25 25 0 01-30.3 3.3 21.2 21.2 0 01-6-5.7 24 24 0 01-3.5-7.6l-.1-.5-1 .3.2.4a25 25 0 003.4 8c1.6 2.5 3.7 4.6 6.2 6.3 4.9 3.3 11 4.7 16.8 4.3a25 25 0 0016.1-7.1c2.1-2.2 3.7-4.9 4.6-7.8 1 3 2.6 5.6 4.7 7.8a25 25 0 0016 7c6 .5 12-1 17-4.2a22.6 22.6 0 009.5-14.3l.1-.5-.9-.2z"/>
<path fill="#15212a" d="M148.9 311.9l.2-2 50.2 6.4-.2 2zM149.9 332.7l49.1-6.2.2 2-49 6.1zM160 357.1l40-21.8.9 1.8-40 21.8zM304.2 316.3l50.2-6.4.2 2-50.2 6.4zM304.2 328.5l.3-2 49 6.2-.2 2zM302.5 337l1-1.7 39.9 21.8-1 1.8z"/>

<circle cx="169" cy="254.2" r="18.9" fill="#15212a"/>
<circle cx="175.9" cy="258.3" r="6.3" fill="#fff"/>
<circle cx="331" cy="254.2" r="18.9" fill="#15212a"/>
<circle cx="324.1" cy="258.3" r="6.3" fill="#fff"/>

<path fill="#15212a" d="M333 196.7h-.4l-27.6-2.1a5 5 0 01.8-10l27.5 2a5 5 0 01-.3 10zM166.6 196.7h.4l27.5-2.1a5 5 0 00-.7-10l-27.6 2a5 5 0 00.4 10z"/>

</svg>