<svg
xmlns="http://www.w3.org/2000/svg"
version="1.1"
width="500"
height="500"
viewBox="0 0 500 500"
>

<rect
width="500"
height="500"
rx="250"
fill="#fcf7d1"
/>

<path fill="#a588f7" d="M440.7 280.2c0 6.7-.4 13.1-1.2 19.2-1.1 7.9-2.9 15.2-5.3 21.9a86.3 86.3 0 01-20.7 32.6C393 374.3 362 385.2 325 390.6c-23 3.3-48.3 4.5-74.9 4.5a529 529 0 01-75-4.6c-68-9.8-115.7-38.4-115.7-110.3 0-96.3 85.4-174.3 190.7-174.3 95.7 0 175 64.4 188.6 148.3a161 161 0 012.1 26z"/>

<path fill="#a588f7" d="M132.3 143a185.8 185.8 0 00-42.6 42.7c-28.4-20.8-36.5-43-31.4-66.4a86.2 86.2 0 018.4-22.1c33.5 4 56.8 18 65.6 45.9zM409.9 185.1a176.3 176.3 0 00-43.1-42.7c9-27.4 32.1-41.2 65.4-45.2 4 7.5 6.8 14.8 8.3 22.1 5.1 23.1-2.8 45.2-30.6 65.8z"/>
<path fill="#fec3aa" d="M103.9 168.2c-5.1 5.5-9.9 11.4-14.2 17.5-28.4-20.8-36.5-43-31.4-66.4 6.8 2.4 16.2 6.7 27 14.4a48.3 48.3 0 0118.6 34.5zM409.9 185.1c-4.5-6.3-9.4-12.3-14.7-18a47.9 47.9 0 0118.4-33.4c10.8-7.7 20.1-12 27-14.4 5 23.1-3 45.2-30.7 65.8z"/>

<path fill="#15212a" d="M288.6 308.7a2.8 2.8 0 00-3.5-1.4l-18.5 7c0-.2-.1-.3-.3-.3-6.6-3.8-11.5-11.6-14.8-23.8 9.6 0 17 .7 17-9a18.5 18.5 0 10-37 0c0 9.7 7.5 9 17 9v.3c3.3 12.3 8 20.5 14.7 25-12 4.5-21.4 8.3-19 8.5 0 0 30.7-5.2 39.8-8.7 5.4-2.1 5.4-4.8 4.6-6.6z"/>

<circle cx="169" cy="250" r="20.4" fill="#15212a"/>
<circle cx="175.4" cy="255.8" r="9.6" fill="#fff"/>
<circle cx="159.4" cy="241" r="4.2" fill="#fff"/>
<circle cx="331" cy="250" r="20.4" fill="#15212a"/>
<circle cx="324.6" cy="255.8" r="9.6" fill="#fff"/>
<circle cx="340.6" cy="241" r="4.2" fill="#fff"/>

<path fill="#15212a" d="M139.8 203c-1 0-2-.3-2.8-.9a5 5 0 01-1.3-7c10.5-15.5 25.8-20.4 45.7-14.5a5 5 0 11-2.9 9.6c-15.6-4.7-26.6-1.3-34.5 10.6a5 5 0 01-4.2 2.2zM361.4 203a5 5 0 01-4.2-2.2c-8-12-19-15.3-34.5-10.6a5 5 0 11-2.9-9.6c19.9-6 35.2-1 45.7 14.6a5 5 0 01-4.1 7.8z"/>

</svg>