<svg
xmlns="http://www.w3.org/2000/svg"
version="1.1"
width="500"
height="500"
viewBox="0 0 500 500"
>

<rect
width="500"
height="500"
rx="250"
fill="#fcf7d1"
/>

<path fill="#ffc1df" d="M440.7 280.2c0 6.7-.4 13.1-1.2 19.2-1.1 7.9-2.9 15.2-5.3 21.9a86.3 86.3 0 01-20.7 32.6C393 374.3 362 385.2 325 390.6c-23 3.3-48.3 4.5-74.9 4.5a529 529 0 01-75-4.6c-68-9.8-115.7-38.4-115.7-110.3 0-96.3 85.4-174.3 190.7-174.3 95.7 0 175 64.4 188.6 148.3a161 161 0 012.1 26z"/>

<path fill="#ffdffd" d="M235 161.3c14.4 27.5 0 71-41.1 115.2-31.8 34.1-86.6 16.8-101-10.8s7.5-67.4 48.9-89 78.9-43 93.3-15.4z"/>

<path fill="#ffc1df" d="M104.3 167.8a176.9 176.9 0 00-21.6 28.8 67.7 67.7 0 01-24.4-12.8 38.1 38.1 0 01-14.1-29.4c-.4-7 .7-13.8 1.8-19.5 2.6-13.3 52.2 27.8 58.3 32.9zM395.8 167.8a176.9 176.9 0 0121.6 28.8 67.7 67.7 0 0024.4-12.8 38.1 38.1 0 0014.1-29.4c.3-7-.7-13.8-1.9-19.5-2.6-13.3-52.2 27.8-58.2 32.9z"/>
<path fill="#fec3aa" d="M91.3 183.6c-3.1 4.2-6 8.5-8.6 13a67.7 67.7 0 01-24.4-12.8 38.1 38.1 0 01-14.1-29.4c6.6.3 22 2 30.3 11 5.4 5.7 11.8 12.7 16.8 18.2zM408.8 183.6c3 4.2 6 8.5 8.6 13a67.7 67.7 0 0024.4-12.8 38.1 38.1 0 0014.1-29.4c-6.7.3-22 2-30.3 11-5.5 5.7-11.8 12.7-16.8 18.2z"/>
<path fill="#937155" d="M114 61.8s6.7-1 9.5 6.8 1 20.3 8.3 24.1c7.4 3.8 17.2 1.2 16.8-9.8-.4-11 3.2-19.3 10.7-15 7.6 4.5 10.6 13.6 9.4 30.2s-1 36.3-5.2 41.7c-4.2 5.3-20.1 5.3-25.5-2.2-5.4-7.6-8-11-16.3-16a61.2 61.2 0 01-24.1-29.3c-3.4-11.5-1.3-32.7 16.5-30.5zM385.8 61.8s-6.6-1-9.4 6.8-1 20.3-8.3 24.1c-7.4 3.8-17.2 1.2-16.8-9.8.4-11-3.2-19.3-10.8-15-7.5 4.5-10.5 13.6-9.3 30.2s1 36.3 5.2 41.7c4.2 5.3 20 5.3 25.5-2.2 5.4-7.6 8-11 16.3-16 8.4-5 20.7-17.7 24.1-29.3 3.4-11.5 1.2-32.7-16.5-30.5z"/>

<path fill="#15212a" d="M288.6 308.7a2.8 2.8 0 00-3.5-1.4l-18.5 7c0-.2-.1-.3-.3-.3-6.6-3.8-11.5-11.6-14.8-23.8 9.6 0 17 .7 17-9a18.5 18.5 0 10-37 0c0 9.7 7.5 9 17 9v.3c3.3 12.3 8 20.5 14.7 25-12 4.5-21.4 8.3-19 8.5 0 0 30.7-5.2 39.8-8.7 5.4-2.1 5.4-4.8 4.6-6.6z"/>

<circle fill="#15212a" cx="168.62" cy="248.28" r="15.49"/>
<circle fill="#fff" cx="163.62" cy="242.97" r="4.95"/>
<circle fill="#15212a" cx="331.04" cy="248.28" r="15.49"/>
<circle fill="#fff" cx="336.04" cy="242.97" r="4.95"/>

<path fill="#15212a" d="M333 196.7h-.4l-27.6-2.1a5 5 0 01.8-10l27.5 2a5 5 0 01-.3 10zM166.6 196.7h.4l27.5-2.1a5 5 0 00-.7-10l-27.6 2a5 5 0 00.4 10z"/>

</svg>