<svg
xmlns="http://www.w3.org/2000/svg"
version="1.1"
width="500"
height="500"
viewBox="0 0 500 500"
>

<rect
width="500"
height="500"
rx="250"
fill="#c4ddd6"
/>

<path fill="#f7c8aa" d="M440.7 280.2c0 6.7-.4 13.1-1.2 19.2-1.1 7.9-2.9 15.2-5.3 21.9a86.3 86.3 0 01-20.7 32.6C393 374.3 362 385.2 325 390.6c-23 3.3-48.3 4.5-74.9 4.5a529 529 0 01-75-4.6c-68-9.8-115.7-38.4-115.7-110.3 0-96.3 85.4-174.3 190.7-174.3 95.7 0 175 64.4 188.6 148.3a161 161 0 012.1 26z"/>

<path fill="#ffe6c8" d="M156 387.1c-57.8-12.3-96.7-42-96.7-107 0-9.4.8-18.6 2.4-27.6 19.1 3.4 39.3 17 53.6 38.1a105 105 0 015 8.2 73.6 73.6 0 0021 23.8c4.9 3.6 9.5 8.3 13.3 14 12.3 18.2 12.6 40 1.3 50.5z"/>

<path fill="#d9aa8c" d="M71.4 144.8c-7.5-15.8 70.4-53.2 78-37.5 8.7 23 7.8 43-1.6 60.6a32 32 0 01-33.8 16.5c-21.4-3.7-35.8-16.6-42.6-39.6zM423.4 144.8c7.6-15.8-70.3-53.2-78-37.5-8.7 23-7.7 43 1.7 60.6a32 32 0 0033.8 16.5c21.4-3.7 35.8-16.6 42.5-39.6z"/>

<path fill="#eabf9f" d="M202.2 99.6c34-8 67.5-7.6 100.4.9 9.3 2.3 14.9 8 13.7 14-7.5 39.7-60.1 79.2-70 71.6-10.8-8.2 2.3-31.4-9.5-33.1-10.4-1.5-25.9 15.9-37.8 11.8-2.7-.9-4.3-2.7-4.2-4.6a161 161 0 00-5.6-46.6c-1.8-6 3.6-11.8 13-14z"/>

<path fill="#d9aa8c" d="M305.2 329c0 25-24.7 45.2-55.2 45.2S194.8 354 194.8 329c0-14 7.7-26.5 20-34.8 3.6 4.6 9 7.5 14.6 10.4-8.2-6.1-12-11.5-13.6-16.5-.4-1.4-.7-2.7-.9-4.1-1.3-9.8 2.1-18.6 9.4-21.9 8.4-3.8 19.3 1.4 25.7 11.8 6.4-10.4 17.3-15.6 25.7-11.8 8.4 3.8 11.6 15 8.4 26.4v.2c-1.7 4.8-5.6 10-13.5 16 5.6-3 11-6 14.7-10.5a42.5 42.5 0 0 1 20 34.8z"/>
<path fill="#15212a" d="M243.2 294.8c8-3.7 5-17-2.1-20.8-7.1-3.9-16.9 3-15.5 8.2s12.8 14.8 17.6 12.6zM256.8 294.8c-8-3.7-5-17 2.1-20.8 7.2-3.9 16.9 3 15.5 8.2-1.4 5.2-12.8 14.8-17.6 12.6z"/>
<path fill="#15212a" d="M294.2 338.9l-.5-.1c-28.5-9.9-57-9.7-84.9 0-.6.1-1 .3-1.4-.3-.3-.6 0-1.1.5-1.4 11.3-5.8 25.7-5.8 35.8-9.3a18 18 0 0 1 11.8-.1c9.8 3.3 26.8 3.5 39 9.5.5.3 1 .8.7 1.4-.2.4-.6.3-1 .3z"/>

<path fill="#15212a" d="M339.3 256.8c0 15.3-8 15.1-17.9 15.1-9.8 0-17.8.2-17.8-15 0-15.4 8-27.8 17.8-27.8 9.9 0 17.9 12.4 17.9 27.7z"/>
<ellipse cx="329.2" cy="241.9" fill="#fff" rx="5.1" ry="7.5" transform="rotate(-22 329.2 242)"/>
<path fill="#15212a" d="M196.5 256.8c0 15.3-8 15.1-18 15.1s-17.8.2-17.8-15c0-15.4 8-27.8 17.9-27.8s17.9 12.4 17.9 27.7z"/>
<ellipse cx="186.4" cy="241.9" fill="#fff" rx="5.1" ry="7.5" transform="rotate(-22 186.4 242)"/>

<path fill="#15212a" d="M333 196.7h-.4l-27.6-2.1a5 5 0 01.8-10l27.5 2a5 5 0 01-.3 10zM166.6 196.7h.4l27.5-2.1a5 5 0 00-.7-10l-27.6 2a5 5 0 00.4 10z"/>

</svg>