<svg
xmlns="http://www.w3.org/2000/svg"
version="1.1"
width="500"
height="500"
viewBox="0 0 500 500"
>

<rect
width="500"
height="500"
rx="250"
fill="#e4e3cd"
/>

<path fill="#ffc1df" d="M440.7 280.2c0 6.7-.4 13.1-1.2 19.2-1.1 7.9-2.9 15.2-5.3 21.9a86.3 86.3 0 01-20.7 32.6C393 374.3 362 385.2 325 390.6c-23 3.3-48.3 4.5-74.9 4.5a529 529 0 01-75-4.6c-68-9.8-115.7-38.4-115.7-110.3 0-96.3 85.4-174.3 190.7-174.3 95.7 0 175 64.4 188.6 148.3a161 161 0 012.1 26z"/>

<path fill="#ffc1df" d="M169 122.4a184.8 184.8 0 00-79.3 63.4c-6.5 9-12 18.8-16.5 29C64.7 177.9 46.6 85.4 78.9 84c27-1.1 66.6 22.4 90.1 38.3zM426.7 214.5c-3.9-8.7-8.5-17-13.7-24.9a184.5 184.5 0 00-82.1-67.3c23.5-15.8 63.1-39.4 90-38.2 32.3 1.3 14.3 93.3 5.8 130.4z"/>
<path fill="#fec3aa" d="M149.2 132.2c-23.9 13.6-44.3 32-59.5 53.6-5.7-27-13.2-74.9 5.5-75.7 15.9-.6 38.7 12.1 54 22zM413 189.6a184.5 184.5 0 00-65.4-59.1c16.7-11 42-25.3 59.6-24.6 20.6 1 12 54.6 5.8 83.7z"/>

<path fill="#fff" d="M324.7 343.4c0 34.5-33.4 29.8-74.7 29.8s-74.7 4.7-74.7-29.8 33.4-62.2 74.7-62.2 74.7 27.8 74.7 62.3z"/>
<path fill="#15212a" d="M274.4 312.3c-.9 0-1.5.7-1.5 1.5 0 6-5.6 8.7-10.7 8.7-4.9 0-10.1-2.5-10.6-7.8v-14.3c13-.1 23.3-1.5 23.3-10.1 0-9-11.2-16.2-24.9-16.2s-24.9 7.2-24.9 16.2c0 8.6 10.3 10 23.3 10v14.5c-.5 5.3-5.7 7.7-10.6 7.7-5.1 0-10.6-2.7-10.6-8.7a1.5 1.5 0 10-3 0c0 3.6 1.5 6.7 4.4 8.8 2.4 1.9 5.7 2.9 9.2 2.9 4.9 0 9.8-2.1 12.2-6.1.7 1.2 1.7 2.3 3 3.2 2.4 1.8 5.7 2.8 9.2 2.8 6.8 0 13.7-4 13.7-11.6 0-.8-.7-1.5-1.5-1.5z"/>

<circle fill="#15212a" cx="168.96" cy="262.77" r="18.38"/>
<circle fill="#fff" cx="163.12" cy="256.93" r="5.84"/>
<circle fill="#15212a" cx="331.04" cy="262.77" r="18.38"/>
<circle fill="#fff" cx="325.2" cy="256.93" r="5.84"/>

<path fill="#15212a" d="M333 196.7h-.4l-27.6-2.1a5 5 0 01.8-10l27.5 2a5 5 0 01-.3 10zM166.6 196.7h.4l27.5-2.1a5 5 0 00-.7-10l-27.6 2a5 5 0 00.4 10z"/>

</svg>