<svg
xmlns="http://www.w3.org/2000/svg"
version="1.1"
width="500"
height="500"
viewBox="0 0 500 500"
>

<rect
width="500"
height="500"
rx="250"
fill="#e4e3cd"
/>

<path fill="#99d6fc" d="M440.7 280.2c0 6.7-.4 13.1-1.2 19.2-1.1 7.9-2.9 15.2-5.3 21.9a86.3 86.3 0 01-20.7 32.6C393 374.3 362 385.2 325 390.6c-23 3.3-48.3 4.5-74.9 4.5a529 529 0 01-75-4.6c-68-9.8-115.7-38.4-115.7-110.3 0-96.3 85.4-174.3 190.7-174.3 95.7 0 175 64.4 188.6 148.3a161 161 0 012.1 26z"/>

<path fill="#99d6fc" d="M396.4 168.5l-4-4.2a190.3 190.3 0 00-74.2-47c9.7-15.7 38.6-48.2 59.6-54.2 4.6-1.4 9.6.7 12 4.8 22.4 38.8 11.6 84.5 6.6 100.6zM103.6 168.5l4-4.2a190.3 190.3 0 0174.2-47c-9.7-15.7-38.6-48.2-59.6-54.2-4.6-1.4-9.6.7-12 4.8-22.4 38.8-11.6 84.5-6.6 100.6z"/>
<path fill="#fec3aa" d="M392.4 164.3a190.3 190.3 0 00-57.6-40.2c8.4-12.5 28.6-34.4 43.4-38.7a8 8 0 019 3.6c16.8 28.9 9 62.8 5.2 75.3zM107.6 164.3a190.3 190.3 0 0157.6-40.2c-8.4-12.5-28.6-34.4-43.4-38.7a8 8 0 00-9 3.6c-16.8 28.9-9 62.8-5.2 75.3z"/>

<path fill="#15212a" d="M250 278.7c-15.5 0-21.2 4.1-21.2 12.9 0 8.7 21.2 21.8 21.2 21.8s21.2-12.5 21.2-21.8-5.7-12.9-21.2-12.9z"/>
<path fill="#15212a" d="M319.2 321c-.4-.9-1.4-1.3-2.4-1-21 9-42.8 13.5-65 13.5v-25.8a1.8 1.8 0 10-3.6 0v25.8c-21.3-.4-43-5-65.1-13.4-1-.4-2 0-2.3 1-.4.9 0 2 1 2.3a193.4 193.4 0 0068.7 13.7h1c22.8 0 45.1-4.6 66.7-13.7 1-.4 1.4-1.5 1-2.4z"/>

<circle cx="169" cy="254.2" r="18.9" fill="#15212a"/>
<circle cx="175.9" cy="258.3" r="6.3" fill="#fff"/>
<circle cx="331" cy="254.2" r="18.9" fill="#15212a"/>
<circle cx="324.1" cy="258.3" r="6.3" fill="#fff"/>

<ellipse fill="#15212a" cx="348" cy="190.6" rx="8.3" ry="19.4" transform="rotate(-57.5 348 190.6)"/>
<ellipse fill="#15212a" cx="152" cy="205.1" rx="19.4" ry="8.3" transform="rotate(-32.5 152 205)"/>

</svg>