<?xml version="1.0" standalone="no"?>
<!DOCTYPE svg PUBLIC "-//W3C//DTD SVG 20010904//EN"
 "http://www.w3.org/TR/2001/REC-SVG-20010904/DTD/svg10.dtd">
<svg version="1.0" xmlns="http://www.w3.org/2000/svg"
 width="1614.000000pt" height="1614.000000pt" viewBox="0 0 1614.000000 1614.000000"
 preserveAspectRatio="xMidYMid meet">
<metadata>
Created by potrace 1.14, written by Peter Selinger 2001-2017
</metadata>
<g transform="translate(0.000000,1614.000000) scale(0.100000,-0.100000)"
fill="#000000" stroke="none">
<path d="M4517 12194 c-1 -1 -60 -4 -132 -8 -131 -7 -165 -10 -265 -22 -30 -3
-66 -8 -80 -9 -77 -9 -142 -20 -298 -51 -1096 -220 -2011 -823 -2602 -1715
-318 -479 -528 -1007 -624 -1569 -32 -186 -37 -226 -51 -405 -4 -55 -9 -111
-11 -125 -5 -37 -4 -527 1 -585 2 -27 7 -81 9 -120 10 -142 32 -306 71 -525
24 -130 120 -480 150 -547 8 -17 15 -36 15 -42 0 -6 6 -25 14 -43 8 -18 33
-80 57 -138 145 -357 372 -735 620 -1030 189 -225 387 -411 650 -613 56 -43
316 -217 324 -217 3 0 29 -15 58 -33 29 -18 66 -40 82 -49 274 -139 374 -185
559 -254 160 -60 154 -58 286 -98 113 -35 142 -42 270 -72 97 -23 103 -24 130
-29 27 -5 60 -12 100 -20 42 -8 121 -20 195 -30 91 -12 100 -13 164 -20 343
-37 794 -37 1136 -1 129 13 164 18 280 37 314 51 747 172 1090 306 77 30 154
60 170 66 76 30 363 181 480 254 129 80 317 216 323 232 2 5 -60 118 -136 252
-173 305 -356 627 -390 688 -14 25 -58 103 -99 174 -40 70 -73 129 -73 131 0
2 -17 33 -38 67 -21 35 -55 93 -74 129 -48 87 -176 311 -188 330 -6 8 -13 22
-17 30 -4 8 -29 52 -55 98 -26 46 -48 86 -48 89 0 3 -8 17 -19 31 -10 15 -35
59 -56 97 -62 114 -55 109 -101 67 -161 -148 -303 -241 -529 -350 -214 -104
-469 -184 -655 -208 -19 -2 -48 -6 -65 -8 -84 -13 -204 -19 -330 -17 -176 2
-149 0 -295 22 -733 110 -1305 641 -1452 1346 -30 143 -32 469 -4 603 9 47 19
95 22 106 25 126 121 350 209 490 104 163 262 331 415 443 47 33 92 67 100 73
37 32 311 161 398 188 119 37 262 67 367 77 144 13 386 7 513 -12 17 -3 44 -7
60 -9 110 -16 290 -64 397 -106 11 -4 61 -23 110 -41 155 -56 226 -91 410
-202 11 -7 36 -24 56 -39 20 -16 40 -28 43 -28 3 0 36 -22 74 -50 38 -27 71
-50 74 -50 5 0 66 104 165 280 11 19 57 100 103 180 45 80 95 169 111 198 16
28 40 70 54 92 14 22 25 41 25 43 0 2 61 112 136 243 75 131 148 259 162 284
86 154 208 369 297 525 57 99 112 196 122 215 11 19 35 61 53 94 l33 58 -24
19 c-110 85 -381 236 -634 354 -165 77 -524 215 -599 231 -11 2 -47 12 -80 23
-34 11 -88 27 -121 36 -205 54 -249 65 -335 84 -88 19 -197 39 -245 46 -11 1
-42 5 -70 9 -83 12 -107 15 -175 21 -36 3 -83 8 -105 10 -115 13 -657 28 -668
19z m553 -1138 c19 -2 64 -8 100 -11 108 -10 287 -42 450 -80 36 -9 76 -18 89
-21 58 -12 229 -71 368 -126 143 -57 152 -61 142 -81 -13 -24 -151 -261 -154
-265 -1 -1 -38 15 -82 37 -145 72 -502 180 -678 204 -22 4 -74 11 -115 17
-209 30 -601 32 -840 5 -216 -25 -529 -101 -685 -165 -16 -7 -39 -16 -50 -20
-91 -35 -288 -133 -375 -186 -36 -22 -76 -47 -89 -55 -14 -8 -30 -17 -35 -22
-203 -148 -204 -148 -315 -252 -340 -318 -577 -710 -725 -1196 -32 -108 -71
-282 -82 -374 -3 -22 -7 -49 -9 -60 -32 -158 -26 -672 11 -895 2 -14 7 -41 10
-60 22 -141 94 -392 160 -555 168 -413 398 -731 740 -1025 42 -36 204 -155
240 -176 164 -97 228 -132 337 -184 70 -33 130 -60 134 -60 3 0 53 -18 112
-39 90 -34 160 -56 206 -67 6 -1 37 -9 70 -17 57 -15 83 -21 150 -32 17 -3 53
-10 80 -15 28 -5 75 -12 105 -16 30 -3 66 -7 80 -9 156 -22 618 -22 750 -1 14
3 45 7 70 10 295 38 717 180 893 300 21 14 41 26 46 26 6 0 158 -252 169 -281
2 -5 -3 -9 -11 -9 -9 0 -17 -4 -19 -8 -5 -14 -244 -127 -349 -166 -86 -31
-281 -90 -334 -100 -11 -2 -58 -13 -105 -24 -105 -25 -174 -38 -255 -47 -16
-2 -43 -6 -60 -9 -133 -24 -617 -25 -805 -1 -14 1 -50 6 -80 9 -30 3 -62 8
-70 10 -8 3 -37 7 -64 11 -27 3 -52 8 -55 10 -3 1 -22 6 -41 9 -110 18 -179
36 -345 87 -184 58 -337 120 -513 210 -355 181 -622 391 -906 713 -40 46 -185
246 -234 322 -236 374 -399 858 -437 1299 -3 39 -8 93 -11 120 -5 55 -5 437 0
499 7 69 17 170 21 196 16 106 23 155 30 190 3 14 7 35 10 48 13 70 69 272 95
344 17 46 32 88 34 93 28 91 156 351 245 495 73 119 75 123 84 134 4 6 37 52
73 101 101 137 221 275 329 375 84 78 103 95 195 169 388 313 894 543 1380
626 19 3 46 8 60 10 81 14 183 26 263 31 51 3 94 8 95 9 6 5 464 -3 502 -9z"/>
<path d="M11347 12195 c-1 -2 -65 -6 -142 -10 -77 -4 -142 -8 -145 -10 -3 -1
-34 -6 -70 -9 -261 -27 -628 -113 -903 -212 -690 -248 -1345 -701 -1797 -1243
-25 -29 -50 -59 -55 -65 -63 -67 -283 -385 -360 -521 -188 -329 -316 -624
-418 -962 -48 -158 -114 -479 -133 -643 -3 -30 -7 -66 -9 -80 -29 -220 -24
-717 10 -960 2 -19 7 -55 10 -80 3 -25 8 -56 10 -70 3 -14 7 -39 10 -56 12
-79 39 -205 60 -289 9 -33 18 -70 20 -82 3 -12 22 -77 44 -145 139 -445 358
-876 635 -1253 94 -128 87 -119 204 -255 208 -243 464 -477 730 -668 69 -50
320 -212 327 -212 2 0 28 -14 57 -31 68 -41 301 -157 398 -199 41 -18 89 -38
105 -45 199 -88 651 -215 852 -240 13 -2 42 -7 65 -11 49 -8 49 -8 143 -19 39
-4 79 -9 90 -11 83 -15 450 -21 650 -10 127 7 149 9 250 20 28 4 70 9 95 12
25 3 68 9 95 14 28 5 64 12 80 15 77 13 93 16 140 27 708 158 1409 522 1926
998 265 245 480 496 661 772 88 133 109 166 124 193 6 11 34 62 63 113 75 133
181 356 244 517 81 205 191 591 212 745 3 25 8 52 10 60 4 14 11 59 19 127 2
15 7 46 10 68 5 37 12 112 22 240 5 66 5 501 0 545 -2 19 -7 73 -10 120 -4 47
-8 96 -11 110 -2 14 -9 63 -15 110 -61 458 -233 964 -480 1415 -89 163 -283
454 -390 586 -253 311 -477 527 -810 777 -40 30 -251 172 -255 172 -3 0 -28
15 -57 33 -129 82 -286 162 -543 277 -247 111 -704 242 -962 275 -13 2 -40 6
-60 9 -21 3 -60 9 -88 12 -27 3 -64 7 -80 9 -101 12 -567 28 -578 20z m443
-1139 c41 -4 86 -10 100 -12 14 -2 45 -7 70 -10 61 -8 272 -52 340 -71 355
-98 721 -277 1024 -501 254 -188 487 -427 681 -698 110 -153 249 -404 330
-597 36 -85 102 -272 110 -311 3 -10 9 -33 15 -51 6 -18 12 -41 14 -51 3 -10
10 -41 16 -69 7 -27 14 -60 15 -72 2 -12 6 -34 9 -50 6 -29 10 -53 21 -133 13
-83 14 -95 22 -200 12 -174 6 -506 -12 -597 -2 -11 -6 -44 -10 -73 -4 -29 -8
-60 -10 -69 -1 -9 -6 -36 -10 -61 -13 -89 -85 -351 -131 -477 -47 -131 -161
-376 -229 -493 -203 -347 -483 -664 -810 -916 -51 -39 -236 -162 -295 -196
-25 -14 -63 -36 -85 -49 -289 -164 -723 -309 -1030 -344 -33 -4 -71 -9 -85
-11 -136 -23 -590 -22 -731 1 -13 2 -60 9 -104 15 -44 6 -120 21 -170 32 -49
11 -97 21 -105 23 -76 16 -282 84 -400 132 -539 221 -1008 594 -1358 1080 -29
40 -52 77 -52 82 0 5 -4 11 -8 13 -18 7 -121 188 -199 348 -162 336 -259 687
-290 1054 -14 164 -8 488 12 666 5 41 38 236 49 285 17 76 60 226 91 315 323
930 1066 1650 2005 1944 109 34 293 79 370 90 19 2 58 8 85 12 28 3 58 8 68
10 9 1 54 6 100 10 45 3 83 7 85 9 6 5 424 -3 492 -9z"/>
<path d="M11377 10754 c-1 -1 -45 -4 -97 -7 -195 -11 -459 -62 -640 -123 -648
-219 -1190 -660 -1534 -1247 -49 -84 -109 -204 -169 -337 -44 -98 -102 -277
-131 -405 -20 -84 -35 -167 -42 -230 -3 -27 -8 -53 -10 -56 -7 -12 -18 -226
-18 -354 0 -120 9 -303 18 -350 2 -11 7 -42 10 -70 13 -91 17 -109 47 -235 27
-110 50 -183 114 -360 68 -189 286 -554 443 -740 300 -358 687 -643 1087 -802
28 -11 64 -26 80 -33 83 -38 336 -105 490 -130 55 -9 111 -18 124 -20 129 -22
554 -22 668 -1 10 2 43 7 73 10 70 8 91 12 225 41 385 83 779 278 1120 553 95
76 351 334 415 418 135 176 236 335 319 501 49 99 116 252 131 303 5 14 22 70
39 124 17 54 33 108 35 120 2 12 10 44 16 71 7 28 14 64 16 80 3 17 9 53 14
80 8 45 12 77 26 219 7 67 6 386 -1 451 -31 307 -80 522 -175 765 -44 115
-151 331 -204 414 -20 31 -36 61 -36 66 0 6 -4 10 -8 10 -5 0 -14 11 -20 24
-16 35 -189 261 -252 330 -83 90 -228 229 -295 283 -33 26 -66 54 -73 61 -22
20 -192 136 -265 181 -306 187 -696 329 -1006 366 -30 4 -63 9 -75 11 -57 11
-448 27 -459 18z m320 -1089 c18 -3 50 -8 70 -11 21 -2 53 -9 73 -14 19 -5 47
-11 62 -14 67 -11 253 -83 358 -138 154 -79 283 -173 400 -288 162 -159 253
-284 346 -476 83 -171 129 -328 160 -547 6 -46 5 -302 -1 -367 -10 -90 -45
-249 -77 -345 -52 -155 -175 -385 -264 -494 -213 -261 -384 -390 -704 -534
-266 -120 -667 -153 -989 -81 -624 139 -1124 631 -1272 1251 -60 253 -60 540
2 788 43 170 124 360 216 504 91 143 246 314 378 417 65 50 184 130 219 145
11 5 35 17 51 27 133 81 407 163 592 178 43 3 79 7 80 8 6 5 270 -3 300 -9z"/>
</g>
</svg>
