<?xml version="1.0" standalone="no"?>
<!DOCTYPE svg PUBLIC "-//W3C//DTD SVG 20010904//EN"
 "http://www.w3.org/TR/2001/REC-SVG-20010904/DTD/svg10.dtd">
<svg version="1.0" xmlns="http://www.w3.org/2000/svg"
 width="752.000000pt" height="752.000000pt" viewBox="0 0 752.000000 752.000000"
 preserveAspectRatio="xMidYMid meet">

<g transform="translate(0.000000,752.000000) scale(0.100000,-0.100000)"
fill="#000000" stroke="none">
<path d="M2083 5985 c-17 -7 -38 -27 -47 -43 -54 -105 -45 -389 30 -881 13
-90 23 -165 22 -167 -2 -1 -34 -14 -72 -28 -243 -92 -386 -264 -490 -591 l-24
-76 96 93 c105 102 159 139 259 175 95 34 103 30 51 -24 -146 -157 -217 -340
-205 -527 7 -100 30 -187 85 -315 l36 -85 27 132 c32 156 51 215 95 303 29 59
131 186 140 176 2 -2 -9 -33 -25 -68 -118 -261 -183 -590 -161 -820 19 -204
75 -339 191 -463 39 -42 79 -81 89 -86 16 -9 16 -4 2 68 -9 46 -15 140 -16
232 -1 145 1 160 27 234 16 44 32 86 36 94 4 7 7 -78 7 -190 -1 -217 8 -291
50 -409 13 -37 36 -88 51 -114 35 -63 134 -168 203 -215 66 -45 160 -93 167
-86 3 3 -20 108 -51 233 -51 207 -56 238 -56 337 0 60 2 107 5 104 3 -3 32
-106 65 -229 88 -336 127 -417 227 -471 92 -50 154 -61 293 -55 138 7 218 23
305 62 54 24 155 92 155 105 0 3 -41 35 -92 70 -387 273 -771 903 -1023 1680
-153 474 -231 885 -285 1505 -14 168 -27 240 -50 285 -31 61 -66 77 -117 55z
m45 -77 c20 -25 33 -99 52 -305 28 -295 65 -587 95 -746 14 -75 25 -143 25
-150 0 -19 -200 -95 -355 -136 -66 -18 -151 -48 -189 -66 -38 -19 -71 -33 -73
-31 -9 9 85 132 147 189 76 72 194 137 288 158 31 8 52 18 52 26 0 7 -15 118
-34 246 -19 127 -42 296 -50 374 -33 295 -12 507 42 441z m191 -1265 c5 -21
26 -103 46 -183 42 -167 160 -530 230 -705 232 -584 544 -1061 856 -1306 l80
-63 -46 -24 c-80 -40 -189 -63 -315 -65 -231 -4 -301 46 -373 268 -49 151
-118 444 -143 612 -35 235 -34 232 -55 143 -37 -148 -68 -316 -75 -401 -7 -97
3 -174 47 -353 17 -65 28 -120 26 -122 -1 -2 -28 16 -58 40 -92 72 -160 180
-200 318 -30 104 -36 359 -15 613 23 278 27 269 -56 130 -135 -226 -178 -357
-178 -539 l0 -111 -20 25 c-30 39 -77 178 -91 270 -16 110 -6 315 21 445 43
200 136 437 243 618 25 42 43 77 40 77 -3 0 -45 -21 -94 -47 -114 -60 -197
-128 -252 -206 -58 -82 -75 -115 -108 -217 l-27 -84 -12 44 c-19 68 -16 215 4
284 43 145 141 279 300 411 152 126 200 164 208 164 4 1 11 -16 17 -36z"/>
<path d="M2511 4948 c-46 -4 -85 -9 -88 -12 -8 -8 46 -269 89 -426 226 -830
613 -1560 1000 -1887 106 -90 193 -147 212 -140 27 11 142 165 219 295 136
229 262 502 306 662 12 41 21 78 21 81 0 4 -48 10 -107 13 -135 8 -214 22
-278 49 -59 25 -185 98 -185 108 0 14 139 41 237 46 l102 6 -22 40 c-12 22
-52 71 -88 108 -52 53 -87 77 -160 113 -102 49 -215 82 -315 92 -35 4 -64 10
-64 15 0 15 116 51 170 52 30 1 88 -7 128 -17 40 -10 75 -16 77 -14 3 3 -39
44 -92 92 -142 128 -252 188 -438 237 -87 23 -88 23 -59 36 48 20 141 15 217
-12 42 -14 67 -19 64 -12 -3 7 -13 32 -23 57 -110 279 -496 453 -923 418z
m347 -92 c174 -38 353 -130 427 -220 19 -24 35 -45 35 -48 0 -2 -15 -2 -34 0
-19 2 -81 -8 -138 -23 -82 -23 -132 -29 -248 -33 l-145 -5 95 -34 c52 -19 172
-54 265 -78 181 -45 286 -84 374 -139 l54 -34 -54 -11 c-29 -7 -91 -32 -136
-56 -46 -25 -121 -66 -168 -91 -47 -25 -85 -46 -85 -47 0 -1 69 -2 153 -3 281
-2 500 -69 615 -187 l33 -34 -76 -12 c-114 -19 -265 -77 -265 -102 0 -13 190
-135 260 -168 86 -40 155 -57 268 -66 107 -8 102 7 45 -139 -82 -208 -218
-466 -334 -637 -88 -128 -84 -126 -149 -82 -72 49 -226 198 -307 298 -251 310
-491 785 -668 1320 -64 193 -148 510 -161 605 l-7 53 139 -6 c76 -3 172 -12
212 -21z"/>
<path d="M5086 4555 c-170 -102 -313 -285 -468 -600 -66 -132 -69 -143 -65
-196 3 -34 16 -76 33 -110 16 -30 30 -57 32 -60 1 -3 -20 -9 -48 -12 -75 -9
-145 -51 -169 -101 -11 -23 -54 -117 -96 -211 -84 -186 -185 -384 -276 -540
-31 -55 -61 -112 -64 -127 -6 -22 10 -70 42 -129 2 -4 -22 -9 -54 -13 -78 -9
-146 -42 -220 -109 -165 -147 -328 -216 -515 -217 -63 0 -266 31 -363 56 -28
7 183 -110 280 -156 108 -51 279 -104 400 -126 152 -26 378 -24 525 5 302 61
549 196 757 414 229 240 372 551 426 927 l13 95 7 -70 c4 -38 3 -124 -3 -191
-40 -485 -220 -843 -512 -1015 l-91 -54 53 -3 c127 -7 294 43 471 143 306 173
516 391 536 556 5 46 8 50 47 68 47 21 94 65 108 101 18 48 46 195 53 280 13
160 -33 434 -80 476 -14 13 -55 29 -101 39 l-78 17 24 20 c84 65 83 64 76 122
-21 181 -160 444 -307 581 -91 85 -241 175 -292 175 -13 0 -49 -16 -81 -35z
m163 -76 c203 -114 349 -311 426 -574 l26 -90 -33 -25 c-46 -34 -108 -101
-108 -116 0 -7 19 -21 43 -32 36 -17 70 -27 173 -47 18 -4 26 -21 45 -97 21
-81 24 -116 24 -268 -1 -147 -4 -188 -22 -253 -12 -43 -29 -87 -38 -97 -17
-19 -74 -43 -126 -54 -25 -6 -26 -7 -17 -48 13 -57 -2 -110 -52 -186 -85 -126
-307 -305 -503 -403 -132 -67 -135 -67 -79 -2 72 85 108 141 167 266 125 260
188 622 156 896 -15 129 -39 205 -93 301 l-43 75 -7 -200 c-11 -341 -62 -563
-184 -808 -167 -333 -450 -581 -788 -691 -154 -51 -228 -61 -431 -61 -203 0
-276 10 -440 63 l-80 25 77 13 c155 27 286 93 426 214 46 39 102 78 125 86 35
13 186 33 251 34 15 0 10 10 -26 53 -62 73 -78 98 -78 122 0 12 32 77 71 145
93 162 162 300 274 545 113 245 107 240 272 240 71 0 109 4 105 10 -3 6 -22
33 -43 61 -56 76 -94 155 -94 194 0 47 112 272 205 414 114 171 273 324 339
326 13 0 49 -14 80 -31z"/>
</g>
</svg>
